<?xml version="1.0" encoding="UTF-8" standalone="no"?>
<!DOCTYPE svg PUBLIC "-//W3C//DTD SVG 1.0//EN" "http://www.w3.org/TR/2001/PR-SVG-20010719/DTD/svg10.dtd">
<svg width="16cm" height="25cm" viewBox="19 13 16 25">
  <rect style="fill: #ffffff" x="19.85" y="13.15" width="15.4" height="1.4"/>
  <rect style="fill: none; fill-opacity:0; stroke-width: 0.1; stroke: #000000" x="19.85" y="13.15" width="15.4" height="1.4"/>
  <text style="fill: #000000; text-anchor:middle; font-size: 1; font-family: sans; font-style: normal; font-weight: 700" x="27.55" y="14.15">PORT_MT020001UV01.AnnotatedECG</text>
  <rect style="fill: #ffffff" x="19.85" y="14.55" width="15.4" height="0.4"/>
  <rect style="fill: none; fill-opacity:0; stroke-width: 0.1; stroke: #000000" x="19.85" y="14.55" width="15.4" height="0.4"/>
  <rect style="fill: #ffffff" x="19.85" y="14.95" width="15.4" height="0.4"/>
  <rect style="fill: none; fill-opacity:0; stroke-width: 0.1; stroke: #000000" x="19.85" y="14.95" width="15.4" height="0.4"/>
  <rect style="fill: #ffffff" x="19.9" y="17.85" width="15.3" height="1.4"/>
  <rect style="fill: none; fill-opacity:0; stroke-width: 0.1; stroke: #000000" x="19.9" y="17.85" width="15.3" height="1.4"/>
  <text style="fill: #000000; text-anchor:middle; font-size: 1; font-family: sans; font-style: normal; font-weight: 700" x="27.55" y="18.85">PORT_HD020001UV01.AnnotatedECG</text>
  <rect style="fill: #ffffff" x="19.9" y="19.25" width="15.3" height="0.4"/>
  <rect style="fill: none; fill-opacity:0; stroke-width: 0.1; stroke: #000000" x="19.9" y="19.25" width="15.3" height="0.4"/>
  <rect style="fill: #ffffff" x="19.9" y="19.65" width="15.3" height="0.4"/>
  <rect style="fill: none; fill-opacity:0; stroke-width: 0.1; stroke: #000000" x="19.9" y="19.65" width="15.3" height="0.4"/>
  <rect style="fill: #ffffff" x="24.8" y="22.2" width="5.5" height="1.4"/>
  <rect style="fill: none; fill-opacity:0; stroke-width: 0.1; stroke: #000000" x="24.8" y="22.2" width="5.5" height="1.4"/>
  <text style="fill: #000000; text-anchor:middle; font-size: 1; font-family: sans; font-style: normal; font-weight: 700" x="27.55" y="23.2">Observation</text>
  <rect style="fill: #ffffff" x="24.8" y="23.6" width="5.5" height="0.4"/>
  <rect style="fill: none; fill-opacity:0; stroke-width: 0.1; stroke: #000000" x="24.8" y="23.6" width="5.5" height="0.4"/>
  <rect style="fill: #ffffff" x="24.8" y="24" width="5.5" height="0.4"/>
  <rect style="fill: none; fill-opacity:0; stroke-width: 0.1; stroke: #000000" x="24.8" y="24" width="5.5" height="0.4"/>
  <rect style="fill: #ffffff" x="26.125" y="26.5625" width="2.85" height="1.4"/>
  <rect style="fill: none; fill-opacity:0; stroke-width: 0.1; stroke: #000000" x="26.125" y="26.5625" width="2.85" height="1.4"/>
  <text style="fill: #000000; text-anchor:middle; font-size: 1; font-family: sans; font-style: normal; font-weight: 700" x="27.55" y="27.5625">Entity</text>
  <rect style="fill: #ffffff" x="26.125" y="27.9625" width="2.85" height="0.4"/>
  <rect style="fill: none; fill-opacity:0; stroke-width: 0.1; stroke: #000000" x="26.125" y="27.9625" width="2.85" height="0.4"/>
  <rect style="fill: #ffffff" x="26.125" y="28.3625" width="2.85" height="0.4"/>
  <rect style="fill: none; fill-opacity:0; stroke-width: 0.1; stroke: #000000" x="26.125" y="28.3625" width="2.85" height="0.4"/>
  <rect style="fill: #ffffff" x="26.375" y="31.1" width="2.35" height="1.4"/>
  <rect style="fill: none; fill-opacity:0; stroke-width: 0.1; stroke: #000000" x="26.375" y="31.1" width="2.35" height="1.4"/>
  <text style="fill: #000000; text-anchor:middle; font-size: 1; font-family: sans; font-style: normal; font-weight: 700" x="27.55" y="32.1">Acts</text>
  <rect style="fill: #ffffff" x="26.375" y="32.5" width="2.35" height="0.4"/>
  <rect style="fill: none; fill-opacity:0; stroke-width: 0.1; stroke: #000000" x="26.375" y="32.5" width="2.35" height="0.4"/>
  <rect style="fill: #ffffff" x="26.375" y="32.9" width="2.35" height="0.4"/>
  <rect style="fill: none; fill-opacity:0; stroke-width: 0.1; stroke: #000000" x="26.375" y="32.9" width="2.35" height="0.4"/>
  <rect style="fill: #ffffff" x="23.425" y="35.4" width="8.25" height="1.4"/>
  <rect style="fill: none; fill-opacity:0; stroke-width: 0.1; stroke: #000000" x="23.425" y="35.4" width="8.25" height="1.4"/>
  <text style="fill: #000000; text-anchor:middle; font-size: 1; font-family: sans; font-style: normal; font-weight: 700" x="27.55" y="36.4">FoundationClasses</text>
  <rect style="fill: #ffffff" x="23.425" y="36.8" width="8.25" height="0.4"/>
  <rect style="fill: none; fill-opacity:0; stroke-width: 0.1; stroke: #000000" x="23.425" y="36.8" width="8.25" height="0.4"/>
  <rect style="fill: #ffffff" x="23.425" y="37.2" width="8.25" height="0.4"/>
  <rect style="fill: none; fill-opacity:0; stroke-width: 0.1; stroke: #000000" x="23.425" y="37.2" width="8.25" height="0.4"/>
  <polyline style="fill: none; fill-opacity:0; stroke-width: 0.1; stroke: #000000" points="27.55,30.1882 27.55,28.7625 27.55,28.7625 "/>
  <polygon style="fill: #ffffff" points="27.15,30.1882 27.55,30.9882 27.95,30.1882 "/>
  <polygon style="fill: none; fill-opacity:0; stroke-width: 0.1; stroke: #000000" points="27.15,30.1882 27.55,30.9882 27.95,30.1882 "/>
  <polyline style="fill: none; fill-opacity:0; stroke-width: 0.1; stroke: #000000" points="27.55,25.6507 27.55,24.4 27.55,24.4 "/>
  <polygon style="fill: #ffffff" points="27.15,25.6507 27.55,26.4507 27.95,25.6507 "/>
  <polygon style="fill: none; fill-opacity:0; stroke-width: 0.1; stroke: #000000" points="27.15,25.6507 27.55,26.4507 27.95,25.6507 "/>
  <polyline style="fill: none; fill-opacity:0; stroke-width: 0.1; stroke: #000000" points="27.55,21.2882 27.55,20.05 27.55,20.05 "/>
  <polygon style="fill: #ffffff" points="27.15,21.2882 27.55,22.0882 27.95,21.2882 "/>
  <polygon style="fill: none; fill-opacity:0; stroke-width: 0.1; stroke: #000000" points="27.15,21.2882 27.55,22.0882 27.95,21.2882 "/>
  <polyline style="fill: none; fill-opacity:0; stroke-width: 0.1; stroke: #000000" points="27.55,16.9382 27.55,15.35 27.55,15.35 "/>
  <polygon style="fill: #ffffff" points="27.15,16.9382 27.55,17.7382 27.95,16.9382 "/>
  <polygon style="fill: none; fill-opacity:0; stroke-width: 0.1; stroke: #000000" points="27.15,16.9382 27.55,17.7382 27.95,16.9382 "/>
  <polyline style="fill: none; fill-opacity:0; stroke-width: 0.1; stroke: #000000" points="27.55,34.4882 27.55,33.3 27.55,33.3 "/>
  <polygon style="fill: #ffffff" points="27.15,34.4882 27.55,35.2882 27.95,34.4882 "/>
  <polygon style="fill: none; fill-opacity:0; stroke-width: 0.1; stroke: #000000" points="27.15,34.4882 27.55,35.2882 27.95,34.4882 "/>
</svg>
