<?xml version="1.0" encoding="UTF-8" standalone="no"?>
<!DOCTYPE svg PUBLIC "-//W3C//DTD SVG 1.0//EN"
 "http://www.w3.org/TR/2001/REC-SVG-20010904/DTD/svg10.dtd" [
 <!ATTLIST svg xmlns:xlink CDATA #FIXED "http://www.w3.org/1999/xlink">
]>
<!-- Generated by dot version 2.6 (Wed Sep 21 18:29:18 UTC 2005)
     For user: (io) Alessio Carenini,,, -->
<!-- Title: dotfile Pages: 1 -->
<svg width="2906pt" height="696pt"
 viewBox = "0 0 2906 696"
 xmlns="http://www.w3.org/2000/svg" xmlns:xlink="http://www.w3.org/1999/xlink">
<g id="graph0" class="graph" style="font-family:Times-Roman;font-size:14.00;">
<title>dotfile</title>
<!-- anon_1 -->
<g id="node1" class="node"><title>anon_1</title>
<ellipse style="fill:#2266ff;stroke:red;" cx="566" cy="406" rx="28" ry="18"/>
<text text-anchor="middle" x="566" y="409" style="font-family:Helvetica;font-size:10.00;">anon_1</text>
</g>
<!-- anon_2 -->
<g id="node2" class="node"><title>anon_2</title>
<ellipse style="fill:#2266ff;stroke:red;" cx="1191" cy="64" rx="28" ry="18"/>
<text text-anchor="middle" x="1191" y="67" style="font-family:Helvetica;font-size:10.00;">anon_2</text>
</g>
<!-- anon_1&#45;&gt;anon_2 -->
<g id="edge6" class="edge"><title>anon_1&#45;&gt;anon_2</title>
<path style="fill:none;stroke:black;" d="M567,388C570,337 582,199 613,168 765,21 1050,44 1153,58"/>
<polygon style="fill:black;stroke:black;" points="1153,55 1163,59 1153,61 1153,55"/>
<text text-anchor="middle" x="810" y="46" style="font-family:Helvetica;font-size:10.00;">cmet/PORT_MT020001UV01#PORT_MT020001UV01.AnnotatedECG.id</text>
</g>
<!-- anon_3 -->
<g id="node3" class="node"><title>anon_3</title>
<ellipse style="fill:#2266ff;stroke:red;" cx="1191" cy="158" rx="28" ry="18"/>
<text text-anchor="middle" x="1191" y="161" style="font-family:Helvetica;font-size:10.00;">anon_3</text>
</g>
<!-- anon_1&#45;&gt;anon_3 -->
<g id="edge8" class="edge"><title>anon_1&#45;&gt;anon_3</title>
<path style="fill:none;stroke:black;" d="M568,388C572,362 584,315 613,289 696,219 1037,176 1152,162"/>
<polygon style="fill:black;stroke:black;" points="1152,159 1162,161 1152,165 1152,159"/>
<text text-anchor="middle" x="810" y="181" style="font-family:Helvetica;font-size:10.00;">cmet/PORT_MT020001UV01#PORT_MT020001UV01.AnnotatedECG.code</text>
</g>
<!-- anon_4 -->
<g id="node4" class="node"><title>anon_4</title>
<ellipse style="fill:#2266ff;stroke:red;" cx="1191" cy="293" rx="28" ry="18"/>
<text text-anchor="middle" x="1191" y="296" style="font-family:Helvetica;font-size:10.00;">anon_4</text>
</g>
<!-- anon_1&#45;&gt;anon_4 -->
<g id="edge10" class="edge"><title>anon_1&#45;&gt;anon_4</title>
<path style="fill:none;stroke:black;" d="M579,389C587,379 599,367 613,360 709,314 1038,299 1152,294"/>
<polygon style="fill:black;stroke:black;" points="1152,290 1162,294 1152,297 1152,290"/>
<text text-anchor="middle" x="810" y="302" style="font-family:Helvetica;font-size:10.00;">cmet/PORT_MT020001UV01#PORT_MT020001UV01.AnnotatedECG.effectiveTime</text>
</g>
<!-- anon_7 -->
<g id="node7" class="node"><title>anon_7</title>
<ellipse style="fill:#2266ff;stroke:red;" cx="1191" cy="374" rx="28" ry="18"/>
<text text-anchor="middle" x="1191" y="377" style="font-family:Helvetica;font-size:10.00;">anon_7</text>
</g>
<!-- anon_1&#45;&gt;anon_7 -->
<g id="edge12" class="edge"><title>anon_1&#45;&gt;anon_7</title>
<path style="fill:none;stroke:black;" d="M593,400C600,399 607,398 613,397 815,374 1058,373 1152,374"/>
<polygon style="fill:black;stroke:black;" points="1152,370 1162,374 1152,377 1152,370"/>
<text text-anchor="middle" x="810" y="373" style="font-family:Helvetica;font-size:10.00;">cmet/PORT_MT020001UV01#PORT_MT020001UV01.AnnotatedECG.confidentialityCode</text>
</g>
<!-- anon_8 -->
<g id="node8" class="node"><title>anon_8</title>
<ellipse style="fill:#2266ff;stroke:red;" cx="1191" cy="428" rx="28" ry="18"/>
<text text-anchor="middle" x="1191" y="431" style="font-family:Helvetica;font-size:10.00;">anon_8</text>
</g>
<!-- anon_1&#45;&gt;anon_8 -->
<g id="edge14" class="edge"><title>anon_1&#45;&gt;anon_8</title>
<path style="fill:none;stroke:black;" d="M595,410C601,411 607,411 613,412 816,427 1058,428 1152,428"/>
<polygon style="fill:black;stroke:black;" points="1152,424 1162,428 1152,431 1152,424"/>
<text text-anchor="middle" x="810" y="406" style="font-family:Helvetica;font-size:10.00;">cmet/PORT_MT020001UV01#PORT_MT020001UV01.AnnotatedECG.reasonCode</text>
</g>
<!-- comp_of_0 -->
<g id="node9" class="node"><title>comp_of_0</title>
<ellipse style="fill:#2266ff;stroke:red;" cx="1191" cy="482" rx="36" ry="18"/>
<text text-anchor="middle" x="1191" y="485" style="font-family:Helvetica;font-size:10.00;">comp_of_0</text>
</g>
<!-- anon_1&#45;&gt;comp_of_0 -->
<g id="edge16" class="edge"><title>anon_1&#45;&gt;comp_of_0</title>
<path style="fill:none;stroke:black;" d="M582,421C591,428 602,436 613,441 800,510 1044,497 1145,487"/>
<polygon style="fill:black;stroke:black;" points="1145,484 1155,486 1145,490 1145,484"/>
<text text-anchor="middle" x="810" y="435" style="font-family:Helvetica;font-size:10.00;">cmet/PORT_MT020001UV01#PORT_MT020001UV01.componentOf</text>
</g>
<!-- cmet/PORT_MT020001UV01#PORT_MT020001UV01.AnnotatedECG -->
<g id="node10" class="node"><title>cmet/PORT_MT020001UV01#PORT_MT020001UV01.AnnotatedECG</title>
<ellipse style="fill:#aabbcc;stroke:red;" cx="1191" cy="536" rx="164" ry="18"/>
<text text-anchor="middle" x="1191" y="539" style="font-family:Helvetica;font-size:10.00;">cmet/PORT_MT020001UV01#PORT_MT020001UV01.AnnotatedECG</text>
</g>
<!-- anon_1&#45;&gt;cmet/PORT_MT020001UV01#PORT_MT020001UV01.AnnotatedECG -->
<g id="edge2" class="edge"><title>anon_1&#45;&gt;cmet/PORT_MT020001UV01#PORT_MT020001UV01.AnnotatedECG</title>
<path style="fill:none;stroke:black;" d="M569,424C573,448 585,489 613,509 680,555 893,553 1041,546"/>
<polygon style="fill:black;stroke:black;" points="1041,542 1051,546 1041,549 1041,542"/>
<text text-anchor="middle" x="810" y="503" style="font-family:Helvetica;font-size:10.00;">http://www.w3.org/1999/02/22&#45;rdf&#45;syntax&#45;ns#type</text>
</g>
<!-- literal_0 -->
<g id="node19" class="node"><title>literal_0</title>
<polygon style="fill:#ccbbaa;stroke:#ff22aa;" points="1218,572 1164,572 1164,608 1218,608 1218,572"/>
<text text-anchor="middle" x="1191" y="593" style="font-family:Helvetica;font-size:10.00;">OBS</text>
</g>
<!-- anon_1&#45;&gt;literal_0 -->
<g id="edge4" class="edge"><title>anon_1&#45;&gt;literal_0</title>
<path style="fill:none;stroke:black;" d="M569,424C575,461 591,546 613,564 777,691 1054,630 1154,602"/>
<polygon style="fill:black;stroke:black;" points="1153,599 1164,599 1155,605 1153,599"/>
<text text-anchor="middle" x="810" y="558" style="font-family:Helvetica;font-size:10.00;">cmet/PORT_MT020001UV01#PORT_MT020001UV01.AnnotatedECG.classCode</text>
</g>
<!-- literal_1 -->
<g id="node27" class="node"><title>literal_1</title>
<polygon style="fill:#ccbbaa;stroke:#ff22aa;" points="1888,5 1694,5 1694,41 1888,41 1888,5"/>
<text text-anchor="middle" x="1791" y="26" style="font-family:Helvetica;font-size:10.00;">61d1a24f&#45;b47e&#45;41aa&#45;ae95&#45;f8ac302f4eeb</text>
</g>
<!-- anon_2&#45;&gt;literal_1 -->
<g id="edge18" class="edge"><title>anon_2&#45;&gt;literal_1</title>
<path style="fill:none;stroke:black;" d="M1220,62C1303,56 1542,40 1683,31"/>
<polygon style="fill:black;stroke:black;" points="1683,28 1693,30 1683,34 1683,28"/>
<text text-anchor="middle" x="1525" y="31" style="font-family:Helvetica;font-size:10.00;">RIMDatatype#root</text>
</g>
<!-- literal_2 -->
<g id="node29" class="node"><title>literal_2</title>
<polygon style="fill:#ccbbaa;stroke:#ff22aa;" points="1818,59 1764,59 1764,95 1818,95 1818,59"/>
<text text-anchor="middle" x="1791" y="80" style="font-family:Helvetica;font-size:10.00;">93000</text>
</g>
<!-- anon_3&#45;&gt;literal_2 -->
<g id="edge20" class="edge"><title>anon_3&#45;&gt;literal_2</title>
<path style="fill:none;stroke:black;" d="M1219,152C1255,145 1319,132 1375,123 1514,103 1681,87 1754,80"/>
<polygon style="fill:black;stroke:black;" points="1754,77 1764,79 1754,83 1754,77"/>
<text text-anchor="middle" x="1525" y="87" style="font-family:Helvetica;font-size:10.00;">RIMDatatype#code</text>
</g>
<!-- literal_3 -->
<g id="node31" class="node"><title>literal_3</title>
<polygon style="fill:#ccbbaa;stroke:#ff22aa;" points="1851,113 1731,113 1731,149 1851,149 1851,113"/>
<text text-anchor="middle" x="1791" y="134" style="font-family:Helvetica;font-size:10.00;">2.16.840.1.113883.6.12</text>
</g>
<!-- anon_3&#45;&gt;literal_3 -->
<g id="edge22" class="edge"><title>anon_3&#45;&gt;literal_3</title>
<path style="fill:none;stroke:black;" d="M1220,157C1311,152 1589,140 1721,134"/>
<polygon style="fill:black;stroke:black;" points="1721,130 1731,134 1721,137 1721,130"/>
<text text-anchor="middle" x="1525" y="136" style="font-family:Helvetica;font-size:10.00;">RIMDatatype#codeSystem</text>
</g>
<!-- literal_4 -->
<g id="node33" class="node"><title>literal_4</title>
<polygon style="fill:#ccbbaa;stroke:#ff22aa;" points="1818,167 1764,167 1764,203 1818,203 1818,167"/>
<text text-anchor="middle" x="1791" y="188" style="font-family:Helvetica;font-size:10.00;">CPT&#45;4</text>
</g>
<!-- anon_3&#45;&gt;literal_4 -->
<g id="edge24" class="edge"><title>anon_3&#45;&gt;literal_4</title>
<path style="fill:none;stroke:black;" d="M1220,159C1319,164 1643,178 1754,184"/>
<polygon style="fill:black;stroke:black;" points="1754,180 1764,184 1754,187 1754,180"/>
<text text-anchor="middle" x="1525" y="166" style="font-family:Helvetica;font-size:10.00;">RIMDatatype#codeSystemName</text>
</g>
<!-- anon_5 -->
<g id="node5" class="node"><title>anon_5</title>
<ellipse style="fill:#2266ff;stroke:red;" cx="1791" cy="239" rx="28" ry="18"/>
<text text-anchor="middle" x="1791" y="242" style="font-family:Helvetica;font-size:10.00;">anon_5</text>
</g>
<!-- anon_4&#45;&gt;anon_5 -->
<g id="edge26" class="edge"><title>anon_4&#45;&gt;anon_5</title>
<path style="fill:none;stroke:black;" d="M1220,290C1319,282 1639,253 1752,243"/>
<polygon style="fill:black;stroke:black;" points="1752,240 1762,242 1752,246 1752,240"/>
<text text-anchor="middle" x="1525" y="250" style="font-family:Helvetica;font-size:10.00;">RIMDatatype#low</text>
</g>
<!-- anon_6 -->
<g id="node6" class="node"><title>anon_6</title>
<ellipse style="fill:#2266ff;stroke:red;" cx="1791" cy="293" rx="28" ry="18"/>
<text text-anchor="middle" x="1791" y="296" style="font-family:Helvetica;font-size:10.00;">anon_6</text>
</g>
<!-- anon_4&#45;&gt;anon_6 -->
<g id="edge28" class="edge"><title>anon_4&#45;&gt;anon_6</title>
<path style="fill:none;stroke:black;" d="M1220,293C1319,293 1639,293 1752,293"/>
<polygon style="fill:black;stroke:black;" points="1752,289 1762,293 1752,296 1752,289"/>
<text text-anchor="middle" x="1525" y="291" style="font-family:Helvetica;font-size:10.00;">RIMDatatype#high</text>
</g>
<!-- literal_5 -->
<g id="node37" class="node"><title>literal_5</title>
<polygon style="fill:#ccbbaa;stroke:#ff22aa;" points="2400,221 2290,221 2290,257 2400,257 2400,221"/>
<text text-anchor="middle" x="2345" y="242" style="font-family:Helvetica;font-size:10.00;">20021122091000.000</text>
</g>
<!-- anon_5&#45;&gt;literal_5 -->
<g id="edge30" class="edge"><title>anon_5&#45;&gt;literal_5</title>
<path style="fill:none;stroke:black;" d="M1820,239C1906,239 2158,239 2279,239"/>
<polygon style="fill:black;stroke:black;" points="2279,235 2289,239 2279,242 2279,235"/>
<text text-anchor="middle" x="2089" y="237" style="font-family:Helvetica;font-size:10.00;">RIMDatatype#value</text>
</g>
<!-- literal_6 -->
<g id="node39" class="node"><title>literal_6</title>
<polygon style="fill:#ccbbaa;stroke:#ff22aa;" points="2400,275 2290,275 2290,311 2400,311 2400,275"/>
<text text-anchor="middle" x="2345" y="296" style="font-family:Helvetica;font-size:10.00;">20021122091010.000</text>
</g>
<!-- anon_6&#45;&gt;literal_6 -->
<g id="edge32" class="edge"><title>anon_6&#45;&gt;literal_6</title>
<path style="fill:none;stroke:black;" d="M1820,293C1906,293 2158,293 2279,293"/>
<polygon style="fill:black;stroke:black;" points="2279,289 2289,293 2279,296 2279,289"/>
<text text-anchor="middle" x="2089" y="291" style="font-family:Helvetica;font-size:10.00;">RIMDatatype#value</text>
</g>
<!-- literal_7 -->
<g id="node41" class="node"><title>literal_7</title>
<polygon style="fill:#ccbbaa;stroke:#ff22aa;" points="1842,329 1740,329 1740,365 1842,365 1842,329"/>
<text text-anchor="middle" x="1791" y="350" style="font-family:Helvetica;font-size:10.00;">???D_BLINDED???</text>
</g>
<!-- anon_7&#45;&gt;literal_7 -->
<g id="edge34" class="edge"><title>anon_7&#45;&gt;literal_7</title>
<path style="fill:none;stroke:black;" d="M1220,373C1312,368 1602,356 1729,350"/>
<polygon style="fill:black;stroke:black;" points="1729,347 1739,349 1729,353 1729,347"/>
<text text-anchor="middle" x="1525" y="352" style="font-family:Helvetica;font-size:10.00;">RIMDatatype#code</text>
</g>
<!-- literal_8 -->
<g id="node43" class="node"><title>literal_8</title>
<polygon style="fill:#ccbbaa;stroke:#ff22aa;" points="1830,383 1752,383 1752,419 1830,419 1830,383"/>
<text text-anchor="middle" x="1791" y="404" style="font-family:Helvetica;font-size:10.00;">???CDISC???</text>
</g>
<!-- anon_7&#45;&gt;literal_8 -->
<g id="edge36" class="edge"><title>anon_7&#45;&gt;literal_8</title>
<path style="fill:none;stroke:black;" d="M1220,375C1315,380 1622,393 1742,399"/>
<polygon style="fill:black;stroke:black;" points="1742,395 1752,399 1742,402 1742,395"/>
<text text-anchor="middle" x="1525" y="380" style="font-family:Helvetica;font-size:10.00;">RIMDatatype#codeSystemName</text>
</g>
<!-- literal_9 -->
<g id="node45" class="node"><title>literal_9</title>
<polygon style="fill:#ccbbaa;stroke:#ff22aa;" points="1855,437 1727,437 1727,473 1855,473 1855,437"/>
<text text-anchor="middle" x="1791" y="458" style="font-family:Helvetica;font-size:10.00;">???PER_PROTOCOL???</text>
</g>
<!-- anon_8&#45;&gt;literal_9 -->
<g id="edge38" class="edge"><title>anon_8&#45;&gt;literal_9</title>
<path style="fill:none;stroke:black;" d="M1220,429C1310,434 1584,445 1717,452"/>
<polygon style="fill:black;stroke:black;" points="1717,448 1727,452 1717,455 1717,448"/>
<text text-anchor="middle" x="1525" y="432" style="font-family:Helvetica;font-size:10.00;">RIMDatatype#code</text>
</g>
<!-- literal_10 -->
<g id="node47" class="node"><title>literal_10</title>
<polygon style="fill:#ccbbaa;stroke:#ff22aa;" points="1830,491 1752,491 1752,527 1830,527 1830,491"/>
<text text-anchor="middle" x="1791" y="512" style="font-family:Helvetica;font-size:10.00;">???CDISC???</text>
</g>
<!-- anon_8&#45;&gt;literal_10 -->
<g id="edge40" class="edge"><title>anon_8&#45;&gt;literal_10</title>
<path style="fill:none;stroke:black;" d="M1220,430C1253,433 1310,441 1357,455 1366,457 1367,460 1375,463 1504,497 1663,506 1742,509"/>
<polygon style="fill:black;stroke:black;" points="1742,505 1752,509 1742,512 1742,505"/>
<text text-anchor="middle" x="1525" y="457" style="font-family:Helvetica;font-size:10.00;">RIMDatatype#codeSystemName</text>
</g>
<!-- tpe_0 -->
<g id="node12" class="node"><title>tpe_0</title>
<ellipse style="fill:#2266ff;stroke:red;" cx="1791" cy="563" rx="27" ry="18"/>
<text text-anchor="middle" x="1791" y="566" style="font-family:Helvetica;font-size:10.00;">tpe_0</text>
</g>
<!-- comp_of_0&#45;&gt;tpe_0 -->
<g id="edge42" class="edge"><title>comp_of_0&#45;&gt;tpe_0</title>
<path style="fill:none;stroke:black;" d="M1228,484C1262,487 1314,494 1357,509 1366,512 1367,516 1375,519 1510,562 1679,565 1754,564"/>
<polygon style="fill:black;stroke:black;" points="1754,560 1764,564 1754,567 1754,560"/>
<text text-anchor="middle" x="1525" y="513" style="font-family:Helvetica;font-size:10.00;">cmet/PORT_MT020001UV01#PORT_MT020001UV01.componentOf</text>
</g>
<!-- file:///home/io/progetti/veggente/trunk/conversion/ecg.rdf -->
<g id="node11" class="node"><title>file:///home/io/progetti/veggente/trunk/conversion/ecg.rdf</title>
<ellipse style="fill:#aabbcc;stroke:red;" cx="140" cy="406" rx="134" ry="18"/>
<text text-anchor="middle" x="140" y="409" style="font-family:Helvetica;font-size:10.00;">file:///home/io/progetti/veggente/trunk/conversion/ecg.rdf</text>
</g>
<!-- file:///home/io/progetti/veggente/trunk/conversion/ecg.rdf&#45;&gt;anon_1 -->
<g id="edge44" class="edge"><title>file:///home/io/progetti/veggente/trunk/conversion/ecg.rdf&#45;&gt;anon_1</title>
<path style="fill:none;stroke:black;" d="M275,406C362,406 470,406 527,406"/>
<polygon style="fill:black;stroke:black;" points="527,402 537,406 527,409 527,402"/>
<text text-anchor="middle" x="406" y="403" style="font-family:Helvetica;font-size:10.00;">http://www.w3.org/2000/01/rdf&#45;schema#isDefinedBy</text>
</g>
<!-- tpe_code -->
<g id="node13" class="node"><title>tpe_code</title>
<ellipse style="fill:#2266ff;stroke:red;" cx="2345" cy="369" rx="31" ry="18"/>
<text text-anchor="middle" x="2345" y="372" style="font-family:Helvetica;font-size:10.00;">tpe_code</text>
</g>
<!-- tpe_0&#45;&gt;tpe_code -->
<g id="edge48" class="edge"><title>tpe_0&#45;&gt;tpe_code</title>
<path style="fill:none;stroke:black;" d="M1818,559C1838,555 1867,548 1889,536 1899,530 1898,524 1907,519 2041,438 2224,394 2304,377"/>
<polygon style="fill:black;stroke:black;" points="2304,374 2314,375 2305,380 2304,374"/>
<text text-anchor="middle" x="2089" y="382" style="font-family:Helvetica;font-size:10.00;">cmet/PORT_MT020001UV01#PORT_MT020001UV01.AnnotatedECG.code</text>
</g>
<!-- tpe_rs -->
<g id="node14" class="node"><title>tpe_rs</title>
<ellipse style="fill:#2266ff;stroke:red;" cx="2345" cy="531" rx="27" ry="18"/>
<text text-anchor="middle" x="2345" y="534" style="font-family:Helvetica;font-size:10.00;">tpe_rs</text>
</g>
<!-- tpe_0&#45;&gt;tpe_rs -->
<g id="edge52" class="edge"><title>tpe_0&#45;&gt;tpe_rs</title>
<path style="fill:none;stroke:black;" d="M1818,561C1909,556 2204,539 2308,534"/>
<polygon style="fill:black;stroke:black;" points="2308,531 2318,533 2308,537 2308,531"/>
<text text-anchor="middle" x="2089" y="531" style="font-family:Helvetica;font-size:10.00;">cmet/PORT_MT020001UV01#PORT_MT020001UV01.AnnotatedECG.reasonCode</text>
</g>
<!-- tpe_time -->
<g id="node15" class="node"><title>tpe_time</title>
<ellipse style="fill:#2266ff;stroke:red;" cx="2345" cy="585" rx="30" ry="18"/>
<text text-anchor="middle" x="2345" y="588" style="font-family:Helvetica;font-size:10.00;">tpe_time</text>
</g>
<!-- tpe_0&#45;&gt;tpe_time -->
<g id="edge50" class="edge"><title>tpe_0&#45;&gt;tpe_time</title>
<path style="fill:none;stroke:black;" d="M1818,566C1842,568 1877,572 1907,574 2053,583 2226,584 2304,585"/>
<polygon style="fill:black;stroke:black;" points="2304,581 2314,585 2304,588 2304,581"/>
<text text-anchor="middle" x="2089" y="571" style="font-family:Helvetica;font-size:10.00;">RIMOntology#effectiveTime</text>
</g>
<!-- literal_11 -->
<g id="node51" class="node"><title>literal_11</title>
<polygon style="fill:#ccbbaa;stroke:#ff22aa;" points="2379,621 2311,621 2311,657 2379,657 2379,621"/>
<text text-anchor="middle" x="2345" y="642" style="font-family:Helvetica;font-size:10.00;">CTTEVENT</text>
</g>
<!-- tpe_0&#45;&gt;literal_11 -->
<g id="edge46" class="edge"><title>tpe_0&#45;&gt;literal_11</title>
<path style="fill:none;stroke:black;" d="M1815,572C1838,580 1875,592 1907,599 2050,627 2222,635 2301,638"/>
<polygon style="fill:black;stroke:black;" points="2301,634 2311,638 2301,641 2301,634"/>
<text text-anchor="middle" x="2089" y="596" style="font-family:Helvetica;font-size:10.00;">RIMOntology#classCode</text>
</g>
<!-- literal_12 -->
<g id="node56" class="node"><title>literal_12</title>
<polygon style="fill:#ccbbaa;stroke:#ff22aa;" points="2665,243 2611,243 2611,279 2665,279 2665,243"/>
<text text-anchor="middle" x="2638" y="264" style="font-family:Helvetica;font-size:10.00;">VISIT_3</text>
</g>
<!-- tpe_code&#45;&gt;literal_12 -->
<g id="edge54" class="edge"><title>tpe_code&#45;&gt;literal_12</title>
<path style="fill:none;stroke:black;" d="M2363,354C2377,342 2398,325 2419,315 2479,287 2556,272 2601,265"/>
<polygon style="fill:black;stroke:black;" points="2601,262 2611,264 2601,268 2601,262"/>
<text text-anchor="middle" x="2491" y="271" style="font-family:Helvetica;font-size:10.00;">RIMDatatype#code</text>
</g>
<!-- literal_13 -->
<g id="node58" class="node"><title>literal_13</title>
<polygon style="fill:#ccbbaa;stroke:#ff22aa;" points="2695,297 2581,297 2581,333 2695,333 2695,297"/>
<text text-anchor="middle" x="2638" y="318" style="font-family:Helvetica;font-size:10.00;">2.16.840.1.113883.3.2</text>
</g>
<!-- tpe_code&#45;&gt;literal_13 -->
<g id="edge56" class="edge"><title>tpe_code&#45;&gt;literal_13</title>
<path style="fill:none;stroke:black;" d="M2376,363C2389,360 2405,357 2419,354 2470,345 2528,335 2571,327"/>
<polygon style="fill:black;stroke:black;" points="2571,324 2581,325 2572,330 2571,324"/>
<text text-anchor="middle" x="2491" y="328" style="font-family:Helvetica;font-size:10.00;">RIMDatatype#codeSystem</text>
</g>
<!-- literal_14 -->
<g id="node60" class="node"><title>literal_14</title>
<polygon style="fill:#ccbbaa;stroke:#ff22aa;" points="2688,351 2588,351 2588,387 2688,387 2688,351"/>
<text text-anchor="middle" x="2638" y="372" style="font-family:Helvetica;font-size:10.00;">PUK&#45;123&#45;PROT&#45;C1</text>
</g>
<!-- tpe_code&#45;&gt;literal_14 -->
<g id="edge58" class="edge"><title>tpe_code&#45;&gt;literal_14</title>
<path style="fill:none;stroke:black;" d="M2378,369C2426,369 2516,369 2577,369"/>
<polygon style="fill:black;stroke:black;" points="2577,365 2587,369 2577,372 2577,365"/>
<text text-anchor="middle" x="2491" y="367" style="font-family:Helvetica;font-size:10.00;">RIMDatatype#codeSystemName</text>
</g>
<!-- literal_15 -->
<g id="node62" class="node"><title>literal_15</title>
<polygon style="fill:#ccbbaa;stroke:#ff22aa;" points="2665,405 2611,405 2611,441 2665,441 2665,405"/>
<text text-anchor="middle" x="2638" y="426" style="font-family:Helvetica;font-size:10.00;">3rd Visit</text>
</g>
<!-- tpe_code&#45;&gt;literal_15 -->
<g id="edge60" class="edge"><title>tpe_code&#45;&gt;literal_15</title>
<path style="fill:none;stroke:black;" d="M2376,375C2389,378 2405,381 2419,384 2483,396 2558,409 2601,416"/>
<polygon style="fill:black;stroke:black;" points="2602,413 2611,418 2601,419 2602,413"/>
<text text-anchor="middle" x="2491" y="380" style="font-family:Helvetica;font-size:10.00;">RIMDatatype#displayName</text>
</g>
<!-- literal_16 -->
<g id="node64" class="node"><title>literal_16</title>
<polygon style="fill:#ccbbaa;stroke:#ff22aa;" points="2692,459 2584,459 2584,495 2692,495 2692,459"/>
<text text-anchor="middle" x="2638" y="480" style="font-family:Helvetica;font-size:10.00;">???SCHEDULED???</text>
</g>
<!-- tpe_rs&#45;&gt;literal_16 -->
<g id="edge62" class="edge"><title>tpe_rs&#45;&gt;literal_16</title>
<path style="fill:none;stroke:black;" d="M2371,526C2385,523 2403,519 2419,516 2471,506 2531,496 2574,488"/>
<polygon style="fill:black;stroke:black;" points="2574,485 2584,486 2575,491 2574,485"/>
<text text-anchor="middle" x="2491" y="486" style="font-family:Helvetica;font-size:10.00;">RIMDatatype#code</text>
</g>
<!-- literal_17 -->
<g id="node66" class="node"><title>literal_17</title>
<polygon style="fill:#ccbbaa;stroke:#ff22aa;" points="2677,513 2599,513 2599,549 2677,549 2677,513"/>
<text text-anchor="middle" x="2638" y="534" style="font-family:Helvetica;font-size:10.00;">???CDISC???</text>
</g>
<!-- tpe_rs&#45;&gt;literal_17 -->
<g id="edge64" class="edge"><title>tpe_rs&#45;&gt;literal_17</title>
<path style="fill:none;stroke:black;" d="M2372,531C2421,531 2526,531 2589,531"/>
<polygon style="fill:black;stroke:black;" points="2589,527 2599,531 2589,534 2589,527"/>
<text text-anchor="middle" x="2491" y="528" style="font-family:Helvetica;font-size:10.00;">RIMDatatype#codeSystemName</text>
</g>
<!-- tpe_time_high -->
<g id="node16" class="node"><title>tpe_time_high</title>
<ellipse style="fill:#2266ff;stroke:red;" cx="2638" cy="585" rx="42" ry="18"/>
<text text-anchor="middle" x="2638" y="588" style="font-family:Helvetica;font-size:10.00;">tpe_time_high</text>
</g>
<!-- tpe_time&#45;&gt;tpe_time_high -->
<g id="edge68" class="edge"><title>tpe_time&#45;&gt;tpe_time_high</title>
<path style="fill:none;stroke:black;" d="M2376,585C2425,585 2523,585 2584,585"/>
<polygon style="fill:black;stroke:black;" points="2584,581 2594,585 2584,588 2584,581"/>
<text text-anchor="middle" x="2491" y="582" style="font-family:Helvetica;font-size:10.00;">RIMDatatype#high</text>
</g>
<!-- tpe_time_low -->
<g id="node17" class="node"><title>tpe_time_low</title>
<ellipse style="fill:#2266ff;stroke:red;" cx="2638" cy="639" rx="40" ry="18"/>
<text text-anchor="middle" x="2638" y="642" style="font-family:Helvetica;font-size:10.00;">tpe_time_low</text>
</g>
<!-- tpe_time&#45;&gt;tpe_time_low -->
<g id="edge66" class="edge"><title>tpe_time&#45;&gt;tpe_time_low</title>
<path style="fill:none;stroke:black;" d="M2375,591C2388,594 2405,597 2419,600 2478,611 2545,623 2589,630"/>
<polygon style="fill:black;stroke:black;" points="2590,627 2599,632 2589,633 2590,627"/>
<text text-anchor="middle" x="2491" y="594" style="font-family:Helvetica;font-size:10.00;">RIMDatatype#low</text>
</g>
<!-- literal_18 -->
<g id="node70" class="node"><title>literal_18</title>
<polygon style="fill:#ccbbaa;stroke:#ff22aa;" points="2900,567 2820,567 2820,603 2900,603 2900,567"/>
<text text-anchor="middle" x="2860" y="588" style="font-family:Helvetica;font-size:10.00;">200211221023</text>
</g>
<!-- tpe_time_high&#45;&gt;literal_18 -->
<g id="edge70" class="edge"><title>tpe_time_high&#45;&gt;literal_18</title>
<path style="fill:none;stroke:black;" d="M2682,585C2719,585 2770,585 2809,585"/>
<polygon style="fill:black;stroke:black;" points="2809,581 2819,585 2809,588 2809,581"/>
<text text-anchor="middle" x="2757" y="582" style="font-family:Helvetica;font-size:10.00;">RIMDatatype#value</text>
</g>
<!-- literal_19 -->
<g id="node72" class="node"><title>literal_19</title>
<polygon style="fill:#ccbbaa;stroke:#ff22aa;" points="2900,621 2820,621 2820,657 2900,657 2900,621"/>
<text text-anchor="middle" x="2860" y="642" style="font-family:Helvetica;font-size:10.00;">200211220737</text>
</g>
<!-- tpe_time_low&#45;&gt;literal_19 -->
<g id="edge72" class="edge"><title>tpe_time_low&#45;&gt;literal_19</title>
<path style="fill:none;stroke:black;" d="M2680,639C2717,639 2770,639 2809,639"/>
<polygon style="fill:black;stroke:black;" points="2809,635 2819,639 2809,642 2809,635"/>
<text text-anchor="middle" x="2757" y="636" style="font-family:Helvetica;font-size:10.00;">RIMDatatype#value</text>
</g>
</g>
</svg>
