<?xml version="1.0" encoding="UTF-8" standalone="no"?>
<!DOCTYPE svg PUBLIC "-//W3C//DTD SVG 1.0//EN" "http://www.w3.org/TR/2001/PR-SVG-20010719/DTD/svg10.dtd">
<svg width="25cm" height="9cm" viewBox="5 8 25 9">
  <rect style="fill: #ffffff" x="6" y="9" width="6.4" height="1.4"/>
  <rect style="fill: none; fill-opacity:0; stroke-width: 0.1; stroke: #000000" x="6" y="9" width="6.4" height="1.4"/>
  <text style="fill: #000000; text-anchor:middle; font-size: 1; font-family: sans; font-style: normal; font-weight: 700" x="9.2" y="10">AnnotatedECG</text>
  <rect style="fill: #ffffff" x="6" y="10.4" width="6.4" height="0.4"/>
  <rect style="fill: none; fill-opacity:0; stroke-width: 0.1; stroke: #000000" x="6" y="10.4" width="6.4" height="0.4"/>
  <rect style="fill: #ffffff" x="6" y="10.8" width="6.4" height="0.4"/>
  <rect style="fill: none; fill-opacity:0; stroke-width: 0.1; stroke: #000000" x="6" y="10.8" width="6.4" height="0.4"/>
  <rect style="fill: #ffffff" x="25" y="9" width="5.2" height="1.4"/>
  <rect style="fill: none; fill-opacity:0; stroke-width: 0.1; stroke: #000000" x="25" y="9" width="5.2" height="1.4"/>
  <text style="fill: #000000; text-anchor:middle; font-size: 1; font-family: sans; font-style: normal; font-weight: 700" x="27.6" y="10">Component</text>
  <rect style="fill: #ffffff" x="25" y="10.4" width="5.2" height="0.4"/>
  <rect style="fill: none; fill-opacity:0; stroke-width: 0.1; stroke: #000000" x="25" y="10.4" width="5.2" height="0.4"/>
  <rect style="fill: #ffffff" x="25" y="10.8" width="5.2" height="0.4"/>
  <rect style="fill: none; fill-opacity:0; stroke-width: 0.1; stroke: #000000" x="25" y="10.8" width="5.2" height="0.4"/>
  <polyline style="fill: none; fill-opacity:0; stroke-width: 0.1; stroke: #000000" points="12.4,9.7 13.15,9.7 13.15,9.7 25,9.7 "/>
  <text style="fill: #000000; text-anchor:start; font-size: 0.8; font-family: monospace; font-style: normal; font-weight: normal" x="13.25" y="9.55">PORT_MT020001UV01.componentOf</text>
  <polyline style="fill: none; fill-opacity:0; stroke-width: 0.1; stroke: #000000" points="18,13.0882 18,10 18,10 "/>
  <polygon style="fill: #ffffff" points="17.6,13.0882 18,13.8882 18.4,13.0882 "/>
  <polygon style="fill: none; fill-opacity:0; stroke-width: 0.1; stroke: #000000" points="17.6,13.0882 18,13.8882 18.4,13.0882 "/>
  <rect style="fill: #ffffff" x="10" y="15" width="1.9" height="1.4"/>
  <rect style="fill: none; fill-opacity:0; stroke-width: 0.1; stroke: #000000" x="10" y="15" width="1.9" height="1.4"/>
  <text style="fill: #000000; text-anchor:middle; font-size: 1; font-family: sans; font-style: normal; font-weight: 700" x="10.95" y="16">Act</text>
  <rect style="fill: #ffffff" x="10" y="16.4" width="1.9" height="0.4"/>
  <rect style="fill: none; fill-opacity:0; stroke-width: 0.1; stroke: #000000" x="10" y="16.4" width="1.9" height="0.4"/>
  <rect style="fill: #ffffff" x="10" y="16.8" width="1.9" height="0.4"/>
  <rect style="fill: none; fill-opacity:0; stroke-width: 0.1; stroke: #000000" x="10" y="16.8" width="1.9" height="0.4"/>
  <rect style="fill: #ffffff" x="24" y="15" width="2.4" height="1.4"/>
  <rect style="fill: none; fill-opacity:0; stroke-width: 0.1; stroke: #000000" x="24" y="15" width="2.4" height="1.4"/>
  <text style="fill: #000000; text-anchor:middle; font-size: 1; font-family: sans; font-style: normal; font-weight: 700" x="25.2" y="16">Role</text>
  <rect style="fill: #ffffff" x="24" y="16.4" width="2.4" height="0.4"/>
  <rect style="fill: none; fill-opacity:0; stroke-width: 0.1; stroke: #000000" x="24" y="16.4" width="2.4" height="0.4"/>
  <rect style="fill: #ffffff" x="24" y="16.8" width="2.4" height="0.4"/>
  <rect style="fill: none; fill-opacity:0; stroke-width: 0.1; stroke: #000000" x="24" y="16.8" width="2.4" height="0.4"/>
  <polyline style="fill: none; fill-opacity:0; stroke-width: 0.1; stroke: #000000" points="11.9,15.7 15,15.7 15,15.7 24,15.7 "/>
  <text style="fill: #000000; text-anchor:start; font-size: 0.8; font-family: monospace; font-style: normal; font-weight: normal" x="15.1" y="15.55">inboundRelationship</text>
</svg>
